<?xml version="1.0" standalone="no"?>
<!DOCTYPE svg PUBLIC "-//W3C//DTD SVG 20010904//EN"
 "http://www.w3.org/TR/2001/REC-SVG-20010904/DTD/svg10.dtd">
<svg version="1.0" xmlns="http://www.w3.org/2000/svg"
 width="285.000000pt" height="285.000000pt" viewBox="0 0 285.000000 285.000000"
 preserveAspectRatio="xMidYMid meet">
<metadata>
Created by potrace 1.14, written by Peter Selinger 2001-2017
</metadata>
<g transform="translate(0.000000,285.000000) scale(0.100000,-0.100000)"
fill="#000000" stroke="none">
<path d="M1264 2467 c-21 -11 -26 -18 -71 -99 -18 -32 -72 -122 -121 -200 -49
-79 -133 -226 -186 -326 -54 -101 -140 -252 -193 -335 -149 -235 -217 -357
-279 -505 -32 -74 -73 -154 -91 -176 -58 -72 -61 -85 -31 -111 15 -13 78 -39
140 -59 62 -21 138 -52 168 -70 30 -19 80 -46 110 -61 30 -15 92 -51 137 -81
106 -68 149 -82 211 -65 26 7 81 16 122 21 101 12 309 76 700 215 179 64 363
127 410 141 89 25 290 113 290 125 0 5 -22 33 -50 65 l-49 56 33 42 c46 57 51
78 24 103 -13 11 -33 26 -45 32 -18 9 -21 19 -20 55 2 36 -4 51 -34 89 -74 95
-192 167 -273 167 -43 0 -81 47 -66 84 5 14 5 36 0 53 -5 15 -12 42 -17 58 -7
24 -15 31 -43 35 -49 7 -153 93 -253 210 -45 52 -112 127 -149 165 -36 39 -80
88 -97 109 -17 22 -83 92 -145 156 -97 100 -116 116 -132 107z m966 -1077 c0
-5 -7 -10 -15 -10 -8 0 -15 5 -15 10 0 6 7 10 15 10 8 0 15 -4 15 -10z m229
-273 c8 -11 7 -18 -7 -31 -18 -15 -20 -15 -35 2 -13 14 -14 21 -5 30 16 16 33
15 47 -1z"/>
</g>
</svg>
