<?xml version="1.0" standalone="no"?>
<!DOCTYPE svg PUBLIC "-//W3C//DTD SVG 20010904//EN"
 "http://www.w3.org/TR/2001/REC-SVG-20010904/DTD/svg10.dtd">
<svg version="1.0" xmlns="http://www.w3.org/2000/svg"
 width="285.000000pt" height="285.000000pt" viewBox="0 0 285.000000 285.000000"
 preserveAspectRatio="xMidYMid meet">
<metadata>
Created by potrace 1.14, written by Peter Selinger 2001-2017
</metadata>
<g transform="translate(0.000000,285.000000) scale(0.100000,-0.100000)"
fill="#000000" stroke="none">
<path d="M0 1425 l0 -1425 1425 0 1425 0 0 1425 0 1425 -1425 0 -1425 0 0
-1425z m1310 992 c0 -5 29 -37 65 -71 l66 -62 -27 -13 c-19 -8 -30 -9 -38 -1
-5 5 -15 10 -20 10 -6 0 -5 -4 3 -9 11 -7 9 -10 -8 -16 -11 -3 -25 -3 -31 0
-6 4 -9 1 -8 -7 2 -7 -4 -13 -12 -13 -12 0 -15 18 -15 101 0 77 -3 100 -12 97
-11 -5 -20 -93 -15 -155 2 -22 -29 -33 -40 -14 -11 19 -39 10 -31 -10 3 -8 12
-14 20 -14 13 0 13 -2 2 -17 -13 -15 -12 -15 8 -5 30 16 33 15 26 -10 -6 -25
-16 -87 -32 -193 -6 -38 -18 -171 -26 -295 -9 -124 -24 -296 -35 -383 -11 -87
-20 -163 -20 -168 0 -6 -4 -8 -9 -5 -5 4 -7 -3 -4 -14 6 -21 5 -21 -40 1 -25
12 -43 27 -40 32 4 6 1 7 -6 3 -7 -5 -19 0 -27 10 -9 11 -13 13 -9 4 4 -8 -1
-6 -10 5 -9 11 -18 19 -20 18 -3 -2 -14 -3 -26 -3 -15 0 -19 4 -15 16 5 14 4
15 -9 4 -11 -9 -15 -9 -15 -1 0 7 -4 10 -9 6 -5 -3 -12 4 -16 15 -3 11 -11 20
-17 20 -6 0 -5 -7 3 -17 13 -16 11 -16 -14 0 -35 23 -51 12 -20 -13 12 -9 19
-21 15 -24 -3 -4 2 -4 12 0 13 5 17 4 12 -4 -4 -7 -2 -10 7 -7 13 6 107 -31
107 -41 0 -3 -5 -14 -10 -25 -8 -15 -7 -19 5 -19 8 0 15 7 15 16 0 9 6 14 13
11 6 -2 11 -10 9 -16 -1 -7 2 -10 8 -6 6 3 8 11 4 16 -3 5 13 0 35 -12 23 -11
41 -25 41 -31 0 -5 5 -6 11 -2 9 5 10 -1 5 -20 -9 -37 -28 -176 -27 -201 1
-28 -56 -362 -70 -411 -7 -23 -9 -49 -4 -60 6 -15 10 -9 22 31 8 28 19 75 24
105 5 30 12 62 16 70 3 8 6 18 5 21 -1 4 3 31 8 60 6 30 12 72 14 94 3 22 13
102 22 178 l18 137 71 1 c38 1 73 1 78 0 4 0 7 3 7 9 0 5 8 7 18 3 12 -4 14
-3 7 5 -8 8 -34 9 -90 3 -44 -5 -82 -8 -84 -5 -2 2 6 77 18 166 21 160 43 381
42 426 -1 13 4 20 9 17 6 -3 10 -15 10 -26 0 -11 6 -19 13 -17 6 1 21 -3 33
-9 30 -17 135 -32 239 -34 72 -2 99 2 136 18 43 19 72 43 52 43 -4 0 -8 23 -9
51 -1 35 -8 59 -24 81 l-22 30 33 -7 c46 -10 85 -31 92 -49 4 -9 -8 -34 -28
-60 -18 -24 -31 -46 -28 -49 7 -7 41 26 36 36 -2 4 3 10 11 13 9 3 16 12 16
20 0 8 5 14 11 14 5 0 7 5 4 10 -3 6 1 10 9 10 20 0 21 -16 2 -27 -8 -4 -16
-12 -17 -18 -4 -20 -31 -55 -39 -50 -4 3 -10 -4 -13 -15 -4 -14 -10 -18 -23
-13 -13 5 -15 3 -9 -7 5 -9 4 -11 -3 -6 -7 4 -12 3 -12 -3 0 -5 -17 -15 -37
-22 -51 -17 -50 -17 -113 -30 -55 -11 -180 -4 -180 10 0 9 -46 8 -55 -1 -13
-13 80 -31 166 -32 86 -1 86 -1 76 -23 -6 -13 -13 -23 -17 -23 -10 0 -60 -44
-60 -53 0 -11 33 4 58 27 13 12 27 20 30 19 4 -2 7 3 7 10 0 6 8 11 18 11 14
-2 15 1 6 12 -21 25 18 45 61 32 8 -3 12 -3 8 -1 -5 3 -8 10 -8 16 0 5 3 7 6
4 4 -3 14 -2 23 2 19 11 39 -7 35 -32 -1 -9 2 -15 7 -11 5 3 7 10 4 15 -10 15
22 10 38 -5 19 -20 56 -9 54 14 -1 15 -4 17 -15 7 -11 -8 -16 -7 -24 6 -5 10
-13 15 -18 12 -5 -3 -18 0 -29 7 -19 12 -19 13 10 30 16 10 29 23 29 29 0 7 9
4 20 -6 16 -14 23 -16 32 -7 15 15 20 49 8 57 -5 3 -7 12 -4 20 4 8 10 13 14
10 5 -3 5 7 1 22 -5 18 -15 29 -28 31 -20 3 -54 32 -38 32 4 0 -13 20 -39 45
-26 25 -44 50 -41 56 4 5 1 8 -7 7 -7 -2 -12 5 -11 16 1 12 -2 15 -9 8 -7 -7
-16 -4 -29 9 -10 10 -27 19 -36 19 -15 0 -14 2 3 16 18 14 18 15 0 6 -10 -5
-46 -7 -80 -5 -45 4 -72 0 -101 -13 -22 -10 -43 -17 -47 -16 -5 1 -8 -2 -8 -8
0 -5 -5 -10 -12 -10 -6 0 -26 -11 -43 -25 -18 -13 -36 -21 -40 -17 -5 4 -5 1
-1 -6 11 -18 -14 -48 -25 -30 -6 9 -9 9 -9 1 0 -6 5 -15 10 -18 6 -4 7 -12 3
-18 -5 -7 -16 -37 -25 -67 -15 -46 -17 -48 -12 -15 4 22 6 51 5 64 -1 22 23
210 33 256 2 11 7 44 11 73 5 38 11 50 19 43 7 -6 27 -6 51 -1 22 5 51 7 65 4
20 -4 22 -3 10 5 -8 6 -12 11 -8 11 3 0 14 3 24 7 13 5 15 3 9 -8 -8 -12 -6
-12 9 0 22 19 46 0 27 -23 -9 -11 -9 -16 0 -22 7 -4 9 -3 5 4 -13 22 12 21 27
-1 8 -12 37 -46 66 -76 28 -29 48 -58 44 -64 -3 -5 -1 -7 4 -4 12 7 109 -89
105 -103 -1 -6 2 -9 7 -8 12 4 141 -148 133 -156 -3 -4 1 -4 9 -1 10 4 20 -3
29 -22 7 -15 13 -32 11 -36 -1 -5 3 -6 9 -2 8 5 7 12 -2 23 -8 9 1 7 20 -7 18
-12 29 -27 26 -33 -4 -6 -2 -8 4 -4 6 3 18 -3 26 -15 16 -24 12 -44 -7 -33 -7
4 -9 3 -4 -1 9 -10 -31 -55 -49 -55 -6 0 -18 8 -25 18 -8 9 -13 15 -12 13 2
-2 -3 -11 -10 -19 -9 -13 -9 -14 1 -8 6 4 17 4 23 1 14 -9 -21 -47 -38 -41 -7
3 -12 2 -10 -2 1 -4 0 -7 -3 -7 -3 0 -15 -9 -27 -20 -27 -25 -208 -89 -224
-79 -8 4 -10 3 -5 -4 4 -8 -1 -13 -13 -14 -12 -1 -33 -3 -48 -5 -16 -2 -72 -7
-127 -10 -76 -4 -100 -2 -107 8 -6 11 -14 11 -44 0 -20 -7 -39 -10 -42 -7 -3
3 7 10 23 16 22 9 25 13 14 20 -9 5 -17 5 -21 -1 -3 -6 -12 -9 -19 -7 -9 2
-15 -10 -17 -36 -3 -25 -1 -36 6 -31 17 10 13 -26 -4 -45 -13 -14 -13 -17 -1
-17 8 0 15 3 14 6 -2 19 4 22 19 10 15 -13 16 -12 11 9 -4 12 -3 22 1 22 14 0
51 -47 44 -55 -5 -4 -2 -5 5 -1 7 4 19 3 26 -3 21 -17 295 -15 324 3 4 2 27 7
51 10 23 2 45 7 48 10 4 3 13 0 21 -7 13 -10 14 -9 8 1 -5 8 5 17 31 28 21 8
50 21 66 30 15 8 33 12 40 8 6 -4 9 -4 5 1 -4 4 12 18 37 31 49 27 59 29 49
12 -4 -7 -3 -8 4 -4 7 4 12 13 12 20 0 7 12 24 28 38 24 24 29 25 46 13 19
-15 31 -65 15 -65 -5 0 -9 -8 -9 -17 0 -26 -36 -77 -44 -64 -4 6 -13 11 -19
11 -7 0 -6 -4 3 -10 12 -8 11 -10 -7 -10 -13 0 -32 -9 -43 -20 -23 -23 -38
-27 -20 -5 7 9 10 18 7 21 -3 3 -10 -4 -17 -15 -6 -12 -15 -19 -20 -16 -6 3
-7 0 -4 -8 4 -10 -25 -22 -113 -48 -65 -19 -124 -33 -130 -33 -7 1 -10 -2 -7
-7 3 -5 1 -9 -5 -9 -5 0 -17 -3 -27 -7 -13 -5 -15 -3 -9 7 5 8 3 11 -4 9 -7
-3 -11 -8 -9 -11 2 -4 -6 -13 -16 -21 -18 -13 -18 -14 5 -13 13 1 27 5 30 10
10 13 42 -2 33 -15 -4 -8 0 -8 15 0 11 7 21 18 21 25 0 16 157 69 173 59 5 -3
12 -2 16 3 3 5 18 15 33 21 22 10 29 9 44 -8 12 -13 30 -19 60 -19 53 0 97
-18 90 -37 -3 -8 -2 -11 3 -8 5 3 12 1 16 -5 3 -5 0 -10 -7 -10 -10 0 -9 -3 2
-9 8 -6 18 -7 22 -5 5 3 7 1 6 -5 -2 -5 6 -17 17 -26 l20 -17 -20 7 c-14 4
-17 3 -9 -5 6 -6 21 -13 34 -15 39 -8 43 -28 7 -42 -17 -8 -37 -11 -44 -9 -7
3 -13 1 -13 -5 0 -6 -7 -9 -15 -5 -8 3 -15 2 -15 -3 0 -16 -39 -19 -44 -4 -5
12 -9 11 -24 -7 -10 -12 -29 -23 -44 -23 -14 -1 -24 -5 -22 -9 4 -6 -70 -23
-93 -21 -7 0 -13 -3 -13 -7 0 -18 -33 -19 -47 -3 -13 17 -13 16 -4 -4 9 -19 7
-22 -20 -32 -17 -6 -35 -8 -40 -5 -5 3 -9 1 -9 -4 0 -8 -6 -10 -50 -14 -11 -1
-20 -5 -20 -9 0 -5 -25 -12 -100 -25 -8 -1 -42 -8 -75 -14 -75 -15 -106 -15
-115 0 -5 8 -9 5 -13 -8 -3 -15 -16 -22 -43 -27 -22 -3 -72 -14 -111 -25 -40
-11 -79 -20 -87 -20 -8 0 -18 -5 -21 -10 -7 -11 45 -8 75 3 30 12 148 36 189
38 23 2 44 6 47 10 4 7 65 20 114 24 22 2 116 24 174 42 14 4 16 2 10 -8 -7
-12 -5 -12 9 -1 9 8 21 11 27 7 6 -4 20 2 31 14 18 19 32 25 52 22 4 0 7 4 7
10 0 5 5 7 10 4 6 -3 10 -1 10 4 0 6 14 11 30 11 17 0 30 5 30 11 0 6 9 9 20
6 11 -3 22 -2 25 3 8 13 176 62 192 56 9 -4 11 -2 7 6 -5 7 -2 9 9 5 9 -3 17
-1 19 5 2 6 16 11 31 11 15 0 24 3 22 7 -3 4 23 7 58 6 l62 -1 -2 -33 c-1 -28
1 -31 11 -17 11 15 13 15 25 1 7 -8 9 -21 5 -28 -4 -7 -4 -10 0 -7 4 4 27 -14
52 -41 43 -46 56 -68 32 -54 -8 4 -10 3 -5 -2 5 -5 13 -10 18 -10 5 -1 12 -2
17 -3 4 -1 -24 -15 -62 -31 -38 -16 -73 -27 -79 -23 -6 3 -7 1 -4 -4 7 -11
-71 -48 -80 -39 -3 3 -17 0 -32 -6 -54 -22 -141 -46 -136 -38 3 4 -4 6 -15 3
-11 -3 -18 -9 -15 -13 7 -12 -32 -23 -46 -14 -7 4 -9 3 -6 -3 8 -13 -35 -26
-56 -17 -8 3 -18 1 -22 -5 -3 -7 0 -8 9 -5 9 3 16 4 16 1 0 -3 -24 -13 -52
-22 -29 -9 -62 -20 -73 -25 -47 -21 -141 -52 -157 -52 -10 1 -18 -3 -18 -7 0
-5 -84 -36 -130 -47 -3 0 -12 -4 -20 -7 -44 -19 -96 -33 -107 -30 -7 3 -13 0
-13 -6 0 -6 -6 -11 -13 -11 -6 0 -55 -14 -107 -30 -52 -17 -124 -33 -160 -36
-36 -2 -81 -9 -100 -16 -44 -14 -90 -18 -90 -6 0 5 -4 7 -9 4 -14 -9 -42 5
-34 17 3 6 1 7 -6 3 -6 -4 -27 2 -47 14 -30 19 -33 24 -22 39 12 14 11 15 -5
2 -15 -12 -20 -11 -35 3 -10 9 -23 16 -28 16 -19 0 -94 57 -87 65 5 5 0 3 -9
-4 -15 -11 -21 -9 -44 16 -15 15 -24 22 -19 14 9 -16 0 -12 -48 22 -22 15 -26
22 -15 28 9 6 9 9 1 9 -6 0 -14 -4 -18 -10 -10 -16 -37 1 -30 19 5 13 4 14 -6
4 -16 -16 -33 -17 -23 -1 5 7 2 9 -9 5 -18 -7 -139 29 -174 51 -31 19 -29 34
11 86 19 25 42 63 52 86 10 22 22 40 27 40 4 0 5 5 2 10 -4 6 0 22 9 35 9 13
16 31 16 40 0 19 36 16 85 -5 31 -14 39 -17 53 -19 5 0 18 -10 30 -21 12 -12
22 -18 22 -14 0 3 25 -8 55 -25 30 -17 55 -29 55 -26 0 3 10 0 23 -7 12 -7 25
-13 30 -14 4 -1 10 -3 15 -4 4 -1 10 -2 15 -1 4 0 7 -3 7 -9 0 -5 6 -7 13 -4
7 2 22 -4 34 -15 11 -11 24 -17 27 -14 3 4 6 1 6 -5 0 -7 7 -12 16 -12 8 0 13
-4 10 -8 -3 -5 0 -9 7 -9 7 0 26 -3 43 -7 23 -5 33 -3 37 8 4 11 1 13 -10 9
-11 -4 -14 -2 -9 5 4 7 2 10 -6 7 -17 -7 -103 37 -103 52 0 6 -4 15 -9 20 -5
5 -6 3 -2 -4 4 -7 3 -13 -2 -13 -21 0 -127 42 -144 57 -10 9 -18 13 -18 10 0
-4 -15 2 -34 12 -32 18 -51 28 -96 51 -11 5 -26 10 -33 10 -9 0 -13 9 -12 24
3 19 -1 23 -13 18 -15 -5 -15 -4 -3 11 20 25 7 21 -15 -5 -10 -12 -14 -19 -9
-15 13 7 41 -8 28 -16 -4 -3 -23 1 -41 9 l-33 13 47 93 c25 51 56 101 67 111
12 10 15 15 7 11 -9 -5 -7 4 7 27 18 28 28 34 52 32 38 -4 49 13 15 21 -23 6
-30 34 -6 29 5 -1 13 4 16 13 4 10 2 13 -6 8 -13 -8 -6 6 26 51 12 17 41 63
65 103 25 43 47 70 53 66 6 -4 8 -3 5 4 -10 15 3 43 16 35 6 -3 7 -1 3 6 -4 6
-2 18 4 26 6 8 21 33 33 57 20 40 25 43 65 44 23 1 42 -3 42 -8 0 -6 7 -8 15
-4 8 3 25 2 38 -3 12 -5 25 -9 30 -10 4 0 21 -8 37 -16 17 -9 30 -12 30 -8 0
15 -17 34 -31 37 -13 2 -77 22 -109 33 -8 3 -28 7 -43 8 -28 3 -51 15 -28 15
7 0 9 5 5 12 -5 8 0 9 17 5 21 -5 22 -5 7 7 -16 12 -15 17 15 64 20 34 37 50
47 48 8 -2 38 -7 65 -10 46 -6 48 -5 31 9 -11 8 -31 16 -45 17 -51 3 -56 4
-54 15 2 10 89 153 160 260 19 29 41 69 49 89 11 26 19 34 31 30 13 -5 14 -4
3 9 -10 12 -10 15 0 15 8 0 11 3 7 6 -3 3 2 14 11 25 15 17 17 17 34 2 10 -9
18 -20 18 -26z m210 -396 c0 -5 10 -7 21 -4 15 4 27 0 35 -12 8 -11 14 -16 14
-12 0 13 54 -27 105 -77 27 -27 41 -44 30 -38 -12 6 -32 22 -47 36 -49 50
-164 69 -243 41 -31 -11 -42 -11 -55 -2 -13 11 -13 10 -1 -5 12 -16 3 -26 -13
-15 -2 1 -13 -6 -23 -16 -11 -9 -23 -14 -28 -10 -4 5 -5 2 -1 -5 4 -7 1 -15
-8 -18 -9 -3 -16 -11 -16 -16 0 -5 -10 -22 -21 -36 l-21 -27 7 25 c23 84 87
141 200 182 58 20 65 21 65 9z m50 -82 c0 -5 4 -8 9 -5 11 7 71 -23 71 -35 0
-6 4 -8 9 -4 5 3 13 0 16 -6 5 -7 -1 -9 -16 -7 -13 2 -23 9 -21 16 1 9 -3 10
-15 3 -18 -10 -103 -31 -135 -34 -9 -1 -14 -5 -12 -9 5 -8 -17 -12 -51 -10
-15 2 -16 0 -7 -7 10 -6 -3 -21 -48 -55 -34 -25 -66 -43 -71 -40 -5 3 -7 10
-4 15 3 5 -1 6 -10 2 -12 -4 -13 -8 -5 -13 16 -10 4 -30 -17 -30 -10 0 -13 5
-8 18 4 9 11 29 15 44 5 15 13 33 19 40 6 7 20 24 31 37 17 21 22 22 37 10 16
-13 17 -12 5 2 -11 15 -8 20 21 38 19 12 38 21 43 21 5 0 4 -4 -3 -8 -9 -5 -6
-12 10 -21 19 -12 20 -12 10 0 -24 29 6 45 90 48 20 0 37 -4 37 -10z m30 -144
c15 -18 -2 -45 -30 -45 -29 0 -43 25 -25 44 20 20 39 20 55 1z m-110 -14 c0
-6 -5 -13 -10 -16 -15 -9 -43 3 -35 15 8 13 45 13 45 1z m18 -53 c-6 -18 -28
-21 -28 -4 0 9 7 16 16 16 9 0 14 -5 12 -12z m-192 -18 c0 -19 -16 -27 -29
-13 -7 6 11 33 22 33 4 0 7 -9 7 -20z m491 1 c0 -11 -5 -17 -9 -15 -11 7 -10
34 1 34 6 0 9 -9 8 -19z m397 -237 c9 -3 13 -10 10 -15 -3 -5 2 -6 10 -3 33
13 118 -49 98 -71 -4 -5 -1 -5 6 -1 7 4 9 13 5 19 -4 7 7 -1 24 -17 18 -17 30
-34 27 -38 -3 -5 0 -7 7 -6 6 2 26 -16 42 -39 29 -40 30 -45 20 -88 -6 -25 -8
-44 -5 -41 2 3 12 -3 21 -12 9 -10 12 -12 7 -5 -13 20 8 16 38 -8 14 -11 26
-27 26 -34 0 -16 -57 -85 -70 -85 -21 0 -18 34 5 62 14 16 25 27 25 23 0 -3 5
-3 10 0 6 4 8 11 4 16 -4 6 -11 6 -19 -1 -10 -8 -19 -5 -36 12 -12 13 -18 17
-14 9 6 -10 4 -12 -4 -7 -7 5 -21 0 -31 -9 -10 -9 -24 -14 -31 -9 -8 4 -10 3
-5 -4 5 -8 -5 -12 -33 -12 -23 0 -41 5 -41 11 0 5 -4 8 -10 4 -11 -7 -50 16
-50 29 0 5 10 1 23 -10 22 -19 22 -19 4 2 -9 11 -14 25 -10 29 5 5 0 3 -10 -5
-16 -12 -22 -10 -50 18 -25 26 -30 36 -21 49 6 9 15 18 21 20 10 4 24 -26 27
-54 1 -6 5 -15 9 -20 5 -4 7 -2 5 6 -2 8 5 17 16 19 10 2 16 0 12 -6 -3 -5 1
-15 9 -22 8 -7 13 -15 11 -19 -11 -17 61 -4 79 15 11 12 27 19 35 17 11 -4 12
-2 2 5 -14 10 -6 42 11 42 8 0 7 4 -1 12 -8 8 -15 8 -26 -2 -9 -7 -22 -10 -30
-7 -11 4 -13 -1 -9 -24 5 -31 -13 -46 -42 -35 -12 4 -13 10 -3 33 6 15 19 34
27 41 22 18 22 41 1 39 -10 -1 -16 -5 -14 -9 3 -4 1 -8 -4 -8 -6 0 -12 -10
-16 -23 -6 -27 -53 -36 -63 -11 -7 18 46 66 62 56 5 -3 7 -1 2 3 -4 5 -1 18 7
31 8 12 13 24 10 27 -6 5 -64 -21 -64 -29 0 -3 5 -2 10 1 20 12 9 -2 -22 -31
-18 -16 -30 -25 -26 -20 5 5 3 15 -3 23 -8 9 -8 13 -1 13 6 0 9 7 6 15 -4 8
-1 15 7 15 7 0 9 3 6 7 -10 10 14 34 27 26 6 -3 8 -3 4 2 -4 4 -3 14 3 21 7 8
7 14 -1 19 -5 3 -10 2 -10 -4 0 -6 -11 -6 -32 0 -23 6 -34 5 -40 -4 -5 -6 -18
-27 -29 -44 -22 -35 -36 -45 -20 -14 11 20 -8 48 -24 33 -13 -13 19 42 39 66
20 23 33 26 60 16z m-13 -107 c-1 -4 -1 -14 -1 -22 0 -8 -9 -15 -19 -15 -17 0
-18 3 -8 25 11 22 30 31 28 12z m-71 -1 c0 -3 -4 -8 -10 -11 -5 -3 -10 -1 -10
4 0 6 5 11 10 11 6 0 10 -2 10 -4z m-40 -41 c6 -8 9 -19 5 -24 -3 -7 0 -8 9
-5 9 3 16 10 16 15 0 12 31 11 50 -1 13 -9 13 -11 0 -21 -12 -8 -11 -9 7 -4
14 4 21 2 19 -7 -3 -22 -17 -39 -27 -32 -5 3 -6 10 -3 16 4 6 2 8 -4 4 -6 -3
-13 -2 -17 4 -4 6 -11 8 -16 5 -5 -4 -9 -3 -9 2 0 4 -23 8 -51 8 -44 0 -52 3
-55 20 -5 34 51 50 76 20z"/>
<path d="M1420 2081 c-14 -5 -39 -15 -56 -24 -17 -9 -35 -13 -39 -9 -5 4 -4 1
0 -7 6 -11 4 -13 -11 -7 -10 4 -15 4 -11 0 3 -4 -5 -17 -20 -30 -29 -25 -26
-42 4 -29 10 5 23 7 28 6 6 -2 7 0 3 4 -10 10 17 35 37 35 10 0 14 5 10 13 -4
6 1 3 10 -8 17 -20 17 -20 10 4 -6 20 -4 23 9 18 9 -4 16 -2 16 4 0 6 5 7 10
4 6 -4 7 -11 4 -17 -4 -7 -2 -8 5 -4 6 4 9 11 6 16 -7 12 39 21 74 14 23 -5
31 -3 31 7 0 16 -79 22 -120 10z"/>
<path d="M1630 2036 c0 -2 8 -10 18 -17 15 -13 16 -12 3 4 -13 16 -21 21 -21
13z"/>
<path d="M940 1891 c0 -6 4 -13 10 -16 6 -3 7 1 4 9 -7 18 -14 21 -14 7z"/>
<path d="M1785 1861 c-3 -5 -2 -12 3 -15 5 -3 9 1 9 9 0 17 -3 19 -12 6z"/>
<path d="M1870 1771 c0 -6 4 -12 8 -15 5 -3 9 1 9 9 0 8 -4 15 -9 15 -4 0 -8
-4 -8 -9z"/>
<path d="M1930 1650 c6 -11 15 -20 20 -20 6 0 2 9 -7 20 -10 11 -19 20 -21 20
-1 0 2 -9 8 -20z"/>
<path d="M855 1610 c-3 -6 1 -7 9 -4 18 7 21 14 7 14 -6 0 -13 -4 -16 -10z"/>
<path d="M810 1592 c0 -8 42 -30 70 -36 26 -6 69 -30 65 -36 -3 -5 0 -12 6
-16 8 -4 9 -3 5 4 -5 8 0 12 13 12 12 0 21 -3 21 -7 0 -5 11 -9 25 -9 13 -1
34 -13 47 -26 13 -13 16 -15 8 -4 -15 20 -15 20 12 3 21 -13 27 -14 31 -3 4 9
-4 17 -21 21 -21 5 -23 8 -11 17 11 8 10 9 -4 4 -11 -3 -24 -3 -30 1 -7 4 -20
9 -30 10 -34 6 -57 24 -57 46 -1 20 -2 21 -14 5 -15 -21 -27 -23 -44 -6 -6 6
-20 13 -29 14 -10 1 -28 6 -40 9 -14 4 -23 3 -23 -3z"/>
<path d="M1790 1540 c-9 -6 -10 -10 -3 -10 6 0 15 5 18 10 8 12 4 12 -15 0z"/>
<path d="M744 1532 c4 -7 2 -21 -5 -30 -12 -15 -11 -15 6 0 16 15 17 20 6 30
-11 11 -13 10 -7 0z"/>
<path d="M1571 1511 c-10 -6 -9 -10 3 -14 8 -3 18 -2 21 3 8 13 -9 20 -24 11z"/>
<path d="M2070 1516 c0 -2 8 -10 18 -17 15 -13 16 -12 3 4 -13 16 -21 21 -21
13z"/>
<path d="M1810 1356 c0 -2 7 -7 16 -10 8 -3 12 -2 9 4 -6 10 -25 14 -25 6z"/>
<path d="M1797 1339 c7 -7 15 -10 18 -7 3 3 -2 9 -12 12 -14 6 -15 5 -6 -5z"/>
<path d="M1847 1309 c7 -7 15 -10 18 -7 3 3 -2 9 -12 12 -14 6 -15 5 -6 -5z"/>
<path d="M1558 1293 c7 -3 16 -2 19 1 4 3 -2 6 -13 5 -11 0 -14 -3 -6 -6z"/>
<path d="M1181 1264 c0 -11 3 -14 6 -6 3 7 2 16 -1 19 -3 4 -6 -2 -5 -13z"/>
<path d="M946 1242 c-3 -5 1 -9 9 -9 8 0 12 4 9 9 -3 4 -7 8 -9 8 -2 0 -6 -4
-9 -8z"/>
<path d="M1745 1211 c-6 -11 13 -26 22 -17 4 3 1 6 -6 6 -7 0 -9 5 -6 10 3 6
4 10 1 10 -3 0 -7 -4 -11 -9z"/>
<path d="M873 1183 c0 -9 4 -10 14 -2 7 6 13 12 13 14 0 1 -6 2 -13 2 -8 0
-14 -6 -14 -14z"/>
<path d="M2120 1191 c0 -6 4 -13 10 -16 6 -3 7 1 4 9 -7 18 -14 21 -14 7z"/>
<path d="M965 1111 c-3 -5 -2 -12 3 -15 5 -3 9 1 9 9 0 17 -3 19 -12 6z"/>
<path d="M479 1073 c-13 -17 -13 -17 6 -3 11 8 22 16 24 17 2 2 0 3 -6 3 -6 0
-17 -8 -24 -17z"/>
<path d="M1798 993 c7 -3 16 -2 19 1 4 3 -2 6 -13 5 -11 0 -14 -3 -6 -6z"/>
<path d="M2486 942 c-3 -5 1 -9 9 -9 8 0 12 4 9 9 -3 4 -7 8 -9 8 -2 0 -6 -4
-9 -8z"/>
<path d="M2497 886 c-4 -10 -1 -13 8 -9 8 3 12 9 9 14 -7 12 -11 11 -17 -5z"/>
<path d="M944 875 c-5 -12 -10 -13 -20 -4 -10 8 -14 8 -14 0 0 -6 3 -11 8 -12
4 0 14 -2 22 -4 10 -1 16 5 16 16 0 23 -5 24 -12 4z"/>
<path d="M1685 870 c-3 -6 1 -7 9 -4 18 7 21 14 7 14 -6 0 -13 -4 -16 -10z"/>
<path d="M336 792 c-3 -5 1 -9 9 -9 8 0 12 4 9 9 -3 4 -7 8 -9 8 -2 0 -6 -4
-9 -8z"/>
<path d="M1278 793 c6 -2 18 -2 25 0 6 3 1 5 -13 5 -14 0 -19 -2 -12 -5z"/>
<path d="M347 719 c7 -7 15 -10 18 -7 3 3 -2 9 -12 12 -14 6 -15 5 -6 -5z"/>
<path d="M1364 1809 c0 -13 3 -15 13 -7 7 6 13 12 13 13 0 2 -6 5 -13 8 -7 3
-13 -3 -13 -14z"/>
<path d="M2139 1443 c-13 -16 -12 -17 4 -4 9 7 17 15 17 17 0 8 -8 3 -21 -13z"/>
<path d="M2276 1378 c3 -5 10 -6 15 -3 13 9 11 12 -6 12 -8 0 -12 -4 -9 -9z"/>
<path d="M2510 1100 c-9 -6 -10 -10 -3 -10 6 0 15 5 18 10 8 12 4 12 -15 0z"/>
</g>
</svg>
